<svg id="Layer_1" data-name="Layer 1" xmlns="http://www.w3.org/2000/svg" viewBox="0 0 2237 367"><defs><style>.cls-1{fill:none;stroke:#fff;stroke-miterlimit:10;stroke-width:7px;}</style></defs><title>logos</title><polygon class="cls-1" points="769.91 245.01 582.35 245.01 555.88 290.83 554.04 294.01 798.21 294.01 795.55 289.42 769.91 245.01"/><path class="cls-1" d="M2164.71,208h0a67.54,67.54,0,0,0-64.93-49h-336a18.5,18.5,0,1,1,0-37h347l28.29-49H1763.78a67.55,67.55,0,0,0-64.93,86h0c.15.53.3,1.05.47,1.57.09.29.18.58.28.87.16.5.33,1,.5,1.49s.42,1.15.64,1.72c0,.12.09.23.13.35.23.58.47,1.16.71,1.74l.54,1.25c.37.83.76,1.65,1.16,2.46.21.43.43.86.65,1.28s.4.75.6,1.11.43.79.66,1.18.45.78.68,1.17l.71,1.15c.44.7.9,1.4,1.37,2.09q.39.58.81,1.17c.66.92,1.33,1.82,2,2.7.25.32.51.64.77.95s.65.79,1,1.17.64.75,1,1.12l0,.06c.33.37.67.74,1,1.1l.6.63c.18.19.36.38.55.56.33.34.66.67,1,1l.92.87c.56.52,1.12,1,1.7,1.54s1.16,1,1.75,1.48,1.1.89,1.66,1.32l.32.25c.52.39,1.05.78,1.59,1.16l.08.06c.71.51,1.43,1,2.17,1.47.35.24.7.46,1.06.69l1.16.7.48.29.47.27c1,.56,1.92,1.08,2.91,1.58.3.17.61.32.92.47l.62.3c.56.28,1.12.54,1.69.79l.69.3c1.13.5,2.27,1,3.43,1.38.85.32,1.72.62,2.59.9l1,.32c.48.15,1,.3,1.45.43l1.26.34c.55.15,1.12.29,1.68.42l.35.08c.59.14,1.19.26,1.79.38l1,.19,1,.17c.43.08.87.15,1.3.21l.39.05c.57.09,1.14.16,1.71.22h.06c.71.09,1.42.16,2.14.22l1.42.1,1.43.08c.95,0,1.92.06,2.88.06h336a18.5,18.5,0,0,1,0,37h-347l-28.29,49h375.27a67.55,67.55,0,0,0,64.93-86Z"/><polygon class="cls-1" points="1394.33 245 1372.94 207.97 1660.06 207.97 1631.77 158.97 1344.65 158.97 1344.65 158.97 1323.31 121.99 1609.54 121.99 1600.43 106.21 1596.88 100.06 1581.25 72.99 1295.02 72.99 1295.02 72.99 1267.32 72.99 1238.43 72.99 1263.17 115.84 1266.72 121.99 1288.08 158.97 1294.05 169.32 1316.37 207.97 1316.37 207.97 1337.74 245 1366.04 294 1422.62 294 1709.7 294 1681.41 245 1394.33 245"/><polygon class="cls-1" points="1264.32 207.97 1236.03 158.97 1214.67 121.99 1214.67 121.99 1214.68 121.99 1205.57 106.21 1202.02 100.06 1186.39 72.99 872.46 72.99 872.46 72.99 843.58 72.99 868.32 115.84 871.87 121.99 893.22 158.97 921.5 207.97 942.88 245 971.17 294 1027.76 294 999.47 245 978.09 207.97 949.79 158.97 928.45 121.99 928.45 121.99 1014.91 121.99 1036.27 158.97 1064.56 207.97 1085.93 245 1114.22 294 1170.81 294 1142.52 245 1121.13 207.97 1092.85 158.97 1071.49 121.99 1158.1 121.99 1179.44 158.97 1207.73 207.97 1229.12 245 1257.4 294 1313.98 294 1285.69 245 1264.32 207.97"/><polygon class="cls-1" points="431.14 207.97 431.14 207.97 459.43 158.97 459.43 158.97 459.43 158.97 480.78 121.99 484.33 115.84 509.07 72.99 480.19 72.99 452.49 72.99 449.37 78.38 424.2 121.99 402.85 158.97 374.56 207.97 353.19 244.97 331.83 207.97 303.54 158.97 297.2 147.99 297.2 147.99 282.19 121.99 257.02 78.38 253.9 72.99 197.32 72.99 181.69 100.06 178.14 106.21 169.03 121.99 169.03 121.99 169.03 121.99 147.68 158.97 119.39 207.97 98.01 245 69.72 294 126.3 294 154.59 245 175.97 207.97 204.26 158.97 225.61 121.99 246.96 158.97 268.91 196.99 275.25 207.97 296.63 245 297.2 245.99 324.89 294 381.47 294 409.76 245 409.76 245 409.76 245 431.14 207.97"/><path class="cls-1" d="M861.66,208h0l-28.29-49h0L812,122,786.85,78.39,783.74,73H568.5l-3.13,5.39L540.2,122l-21.35,37-7.22,12.53-6.94,12h0L490.57,208l-21.39,37-28.29,49h56.58l28.3-49,21.37-37H805.08l21.39,37,28.28,49h56.58L883,245ZM596.79,122H755.45l21.34,37H575.43Z"/></svg>